<?xml version="1.0" encoding="UTF-8"?>
<svg id="svg870" width="297" height="332.55441" version="1.1" viewBox="0 0 7862.4597 8797.6381" xmlns="http://www.w3.org/2000/svg">
 <g id="g1373" transform="matrix(.89919963 0 0 .89919963 577.86572 -272.785)">
  <path id="path1135" d="m3981 6866.626c0-12-7-48-15-78-46-170-55-508-20-760 41-290 105-454 244-627 87-108 378-398 511-509 149-125 377-290 493-357 113-66 252-104 304-82 90 38 68 134-69 295-34 41-73 90-86 108-28 40-99 180-118 234l-14 40 33-7c91-20 258-125 357-225 138-140 237-318 369-668 92-243 159-362 254-455 115-112 242-129 268-35 12 45 0 96-51 223-70 176-97 287-150 613-29 176-60 290-116 420-121 285-277 499-468 642-119 89-180 123-426 237-399 184-744 405-940 602-47 47-142 158-210 245-69 88-131.884 158.79-137.884 161.79-8 2-12.116-3.79-12.116-17.79z"/>
  <path id="path1133" d="m3554 6865.626c-20-21-50-61-184-237-130-172-266-294-519-465-155-104-387-232-610-334-344-158-517-297-681-546-77-115-190-344-229-461-31-96-63-262-81-424-18-164-57-333-104-454-60-152-75-202-75-258 0-58 23-78 90-78 139 0 291 191 415 520 131 346 161 415 248 560 54 90 169 218 248 276 60 44 275 154 301 154 19 0 19-2 6-22-8-13-22-45-32-73-31-84-84-174-167-281-73-94-148-219-163-271-11-34 25-63 75-63 89 0 203 45 390 153 146 84 329 232 565 455 447 424 537 571 589 967 24 177 24 480 1 635-16 107-49 256-58 266-3 2-14-6-25-19z"/>
 </g>
 <g id="g4304" transform="matrix(.83072412 0 0 .83072412 159.7198 1543.3084)" fill="#f9db12" stroke-width="1.08243">
  <path id="path4271" d="m1922.4152 560.64221c-74.6876-41.13229-136.3861-79.01729-138.5509-84.42944-2.1649-5.41214 4.3297-16.23643 12.9891-25.97829 15.154-14.07157 31.3905-8.65942 153.7049 57.36873 74.6876 40.04986 141.7982 79.01729 148.2927 85.51186 12.9892 12.98915-7.577 44.37958-29.2255 43.29715-6.4946 0-72.5228-33.55529-147.2103-75.77001z"/>
  <path id="path4269" d="m7255.5414 911.34911c-24.8959-23.81343-1.0825-47.62686 103.9131-107.16044 60.616-34.63772 171.0238-97.41858 245.7113-140.71573l135.3036-77.93487 18.4013 22.73101c10.8243 12.98914 17.3189 29.22557 16.2364 34.63771-2.1648 6.49458-44.3795 33.55529-95.2537 60.61601-49.7917 27.06072-160.1994 86.5943-244.6289 132.0563-154.7873 84.42944-166.694 88.75916-179.6831 75.77001z"/>
  <g id="g4265">
   <path id="path1669" d="m3721.4117-1350.9269c-86.5943-230.5573-142.8806-384.2622-142.8806-394.004 0-5.4122 19.4837-9.7419 43.2971-9.7419 29.2256 0 45.462 5.4122 51.9566 19.4837 6.4946 9.7419 43.2971 122.3145 82.2646 250.0411 73.6051 238.1343 74.6876 248.9586 27.0607 250.041-11.9067 0-30.308-34.6377-61.6984-115.8199z"/>
   <path id="path1667" d="m5889.5163-1221.0354c-11.9067-2.1649-27.0607-6.4946-33.5552-8.6595-6.4946-2.1648 17.3188-120.1495 66.0281-314.9867l76.8524-312.8219 45.462-3.2473c24.8959-2.1648 45.4621 1.0824 45.4621 6.4946 0 5.4121-23.8135 107.1604-53.0391 225.1452-29.2255 119.0671-61.6984 252.2058-72.5227 296.5854-19.4837 86.5943-32.4728 120.1496-45.462 117.9847-4.3297-1.0824-17.3188-3.2472-29.2256-6.4945z"/>
   <path id="path1665" d="m4379.5283-1180.9856c0-147.2103 3.2473-184.0128 14.0716-184.0128 11.9067 0 16.2364 33.5552 21.6486 138.5508 11.9067 219.7331 10.8242 229.47491-14.0716 229.47491-20.5662 0-21.6486-7.57701-21.6486-184.01291z"/>
   <path id="path1663" d="m5220.5754-744.7668c-8.6594-7.577-10.8243-689.5071-2.1649-697.0841 2.1649-3.2473 22.731-3.2473 44.3796-1.0824l38.9675 4.3297-6.4946 267.3599c-4.3297 146.1279-9.7419 304.16246-12.9892 350.70689-6.4945 76.85244-8.6594 83.34701-30.308 83.34701-14.0715 0-28.1431-3.24729-31.3904-7.577z"/>
   <path id="path1661" d="m3439.9802-540.18778c-11.9067-16.23643-48.7093-83.34701-84.4294-150.45758-48.7093-92.00644-60.6161-124.47931-50.8742-134.22116 18.4013-18.40129 29.2256-6.49458 84.4294 96.33615 28.1432 51.95658 66.0282 119.06716 83.3471 149.37516 30.308 54.12144 30.308 56.28629 8.6594 61.69844-15.154 4.32971-27.0607-3.24729-41.1323-22.73101z"/>
   <path id="path1659" d="m6116.8264-412.46119c-9.7419-15.154 125.5617-336.63532 143.963-344.21233 7.577-2.16485 19.4837 0 25.9783 6.49458 7.577 7.577-3.2473 43.29714-36.8026 117.98472-27.0607 58.45115-60.616 134.22116-74.6876 167.77645-24.8958 59.53358-43.2971 75.77001-58.4511 51.95658z"/>
   <path id="path1657" d="m2739.6488-500.13791c-221.8979-253.28832-208.9087-233.8046-179.6831-261.94775l22.731-23.81343 175.3534 182.93045c96.3362 100.66587 185.0953 194.83717 195.9196 208.90874 20.5662 25.97829 20.5662 25.97829-4.3297 53.03901-12.9892 14.07157-29.2256 25.97828-35.7202 25.97828-6.4945 0-84.4294-83.34701-174.271-185.0953z"/>
   <path id="path1655" d="m6661.288-157.00802c-24.8959-18.40128-24.8959-37.885 1.0824-64.94572 10.8243-12.98914 74.6876-95.25372 141.7982-185.09531 184.0129-245.71131 167.7764-228.39245 212.156-206.74388 21.6486 9.74186 36.8026 21.64858 34.6377 25.97829-4.3297 10.82429-297.6679 365.8609-338.8001 410.24048-28.1432 31.39043-34.6378 33.55529-50.8742 20.56614z"/>
   <path id="path1653" d="m1914.8382-348.5979c-117.9848-119.06715-215.4034-221.89788-216.4858-229.47488-2.1648-7.577 9.7419-21.64857 24.8959-33.55529 33.5553-23.81343 10.8243-43.29715 276.0193 232.72217l192.6723 201.33174-31.3904 22.731-31.3905 22.731z"/>
   <path id="path1651" d="m7258.7886 121.17616-32.4728-30.308004 266.2774-259.782886c147.2103-142.88059 272.7721-260.86532 279.2667-263.03018 7.577-1.08242 27.0607 11.90672 44.3795 31.39044l32.4729 33.55529-49.7917 44.37957c-28.1432 24.89586-152.6225 141.79816-278.1842 259.782891l-228.3925 213.238449z"/>
  </g>
 </g>
 <g id="g4308" transform="matrix(.83072412 0 0 .83072412 159.7198 1543.3084)" fill="#f9db12">
  <path id="path864" d="m4655.277 2925.4783s-56.0157-237.8637-91.7358-437.0306c-35.7202-199.1669-93.0889-508.7415-125.5617-687.3422-33.5553-178.6007-64.9458-350.7069-70.3579-381.0149-17.3189-100.6659-29.2256-167.7764-57.3687-311.7395-14.0716-76.8524-58.4512-316.06915-98.501-530.39003-38.9675-214.32088-110.4078-596.418212-158.0346-848.6241-46.5445-252.20589-78.0702-475.59211-78.0702-475.59211l34.773 90.24749c37.885 116.9023 215.4033 610.48979 271.6896 752.28795 89.8416 230.55731 216.4858 395.08648 338.8002 440.54848 115.8199 42.21472 267.3599-21.64857 352.8718-149.37516 71.4403-106.07801 85.5118-148.29273 135.3035-403.745905 27.0608-136.386015 67.1106-273.313245 67.1106-273.313245s4.3297 47.08565-40.0498 320.940108c-17.3189 110.407732-38.9675 246.793742-47.6269 303.080032-28.1431 172.10617-38.9674 241.3816-49.7917 297.6679-5.4122 30.308-21.6486 134.22116-36.8026 232.72217-16.2364 98.50101-41.1323 246.79372-55.2039 330.14072-15.154 83.347-29.2255 171.0238-32.4728 194.8372-2.1649 23.8134-23.8134 162.3643-47.6269 308.4922-99.5834 618.0668-158.0346 944.9602-179.6831 1082.4287z" stroke-width="1.08243"/>
  <path id="path1908" d="m4961.2155 143.46628a274.6015 274.6015 0 0 1-274.6015 274.6015 274.6015 274.6015 0 0 1-274.6015-274.6015 274.6015 274.6015 0 0 1 274.6015-274.60154 274.6015 274.6015 0 0 1 274.6015 274.60154z" stroke-width="19.7388"/>
 </g>
 <g id="g4186" transform="matrix(.83072412 0 0 .83072412 159.7198 1543.3084)" fill="#2f9af6">
  <path id="path858" d="m3617.4985 2271.962c-168.8589-331.2232-329.0583-800.9972-391.8392-1152.7865-67.6518-248.41771 3.2473-875.95574 3.2473-875.95574s24.8958 10.01247 84.4294 177.78891c87.6767 251.12345 171.0237 382.09733 284.6787 452.45519 80.0997 48.70931 229.4749 113.65506 431.8891 184.01314 272.3195 95.2537 306.7354 104.9956 301.9976 164.5292 6.4946 27.0607 14.0715 69.2754 17.3189 94.1712l8.8629 43.3654-118.1882 8.5912c-281.4315 17.3189-356.1191 76.8525-382.0973 301.9976-14.0716 112.5726-5.4122 316.0693 29.2255 736.0516 9.7419 112.5726 10.7085 317.2587 10.7085 317.2587s-214.2051-321.5884-280.2332-451.4799zm-1121.3961 23.8134c0-27.0607 48.7093-166.694 82.2645-232.7221 83.347-167.7765 317.1516-412.4054 535.8023-559.6157 51.9565-36.8026 68.1929-42.2147 75.77-31.3904 20.566 31.3904 75.77 186.1777 92.0064 255.4532 16.2364 69.2753 15.1539 73.6051-3.2473 87.6767-10.8243 7.577-104.9956 57.3688-208.9088 110.4077-149.3751 76.8525-225.1452 123.3969-357.2014 222.9803-199.1669 149.3752-216.4857 161.2819-216.4857 147.2103z" stroke-width="1.08243"/>
  <path id="path2832" d="m4166.2183 674.26692a274.6015 274.6015 0 0 1-274.6015 274.60148 274.6015 274.6015 0 0 1-274.6015-274.60148 274.6015 274.6015 0 0 1 274.6015-274.60151 274.6015 274.6015 0 0 1 274.6015 274.60151z" stroke-width="19.7388"/>
 </g>
 <g id="g4176" transform="matrix(.83072412 0 0 .83072412 159.7198 1543.3084)" fill="#d42173">
  <path id="path852" d="m5347.2195 2734.1591s1.0824-143.9631 38.9674-565.0278c46.5445-516.3185 20.5662-671.1058-122.3144-736.0515-63.8633-30.3081-172.1061-48.7093-282.5139-48.7093-57.3687 0-72.5227-3.2473-68.193-14.0716 3.2473-8.6594 11.9067-53.0391 19.4837-98.501 11.9067-71.4403 4.8709-87.9473 28.6844-99.8541 15.154-7.577 135.8448-45.1914 251.6646-85.2412 378.8501-129.89172 488.1754-185.09558 573.6873-287.92631 64.9457-77.93487 103.9131-153.70488 168.8588-322.56375 27.0607-69.27544 56.2864-142.88059 66.0281-163.44674l17.319-37.885 9.7418 32.47286c20.5661 71.4403 34.6377 476.26862 21.6485 624.56137-32.4728 377.76787-202.4141 918.98227-426.4769 1354.11847-94.1712 181.8481-296.5854 448.1256-296.5854 448.1256zm1256.6998-501.1646c-174.2711-137.4684-278.1842-206.7438-427.5594-281.4314-68.1931-33.5553-142.8806-73.6051-166.694-87.6767-41.1323-25.9783-41.1323-28.1431-35.7201-79.0173 6.4945-51.9566 87.6767-276.0193 103.9131-286.8436 24.8958-15.154 305.2449 217.5681 413.4878 342.0475 143.9629 166.6939 202.4141 264.1126 243.5464 408.0755 9.7419 34.6378 22.731 75.77 22.731 75.77s-32.4729 5.4122-153.7048-90.924z" stroke-width="1.08243"/>
  <path id="path3505" d="m5659.6684 696.46749a274.6015 274.6015 0 0 1-274.6015 274.60157 274.6015 274.6015 0 0 1-274.6015-274.60157 274.6015 274.6015 0 0 1 274.6015-274.60151 274.6015 274.6015 0 0 1 274.6015 274.60151z" stroke-width="19.7388"/>
 </g>
 <g id="am" transform="matrix(.81700454 0 0 .84467406 159.7198 1543.3084)" stroke-width="31.4432">
  <path id="path14370" d="m991.17812 6853.1325-165.46294 24.0815q-14.7596 2.3305-29.51921 2.3305-42.72517 0-53.60067-24.0815-10.8755-24.8583-10.8755-61.3689 0-43.502 2.33047-111.0854 3.10728-68.3603 6.99139-147.5961 4.66093-79.2357 8.54503-156.1411 3.88411-77.6821 6.21457-141.3814 3.10729-63.6994 3.10729-100.21 0-38.8411-7.76822-86.2272-7.76821-47.3861-33.40331-81.5662-24.85828-34.957-76.12849-34.957-19.42053 0-37.28742 5.4378-17.86689 5.4377-31.84968 20.1974-10.09867 10.0986-23.30464 36.5106-13.20596 26.4119-26.41192 88.5576-12.42914 62.1457-20.97418 179.4457-8.54503 116.5232-8.54503 308.3981v70.6907q0 93.9954 7.76821 137.4974 8.54504 42.7252 55.93114 51.2702v20.1973l-160.80202 24.0815q-13.98278 2.3305-27.96556 2.3305-28.74239 0-44.27882-17.8669-8.54503-9.3219-17.86689-34.1802-9.32185-24.8582-16.31325-82.343-6.21457-58.2616-6.21457-165.463 0-78.4589 0.77682-157.6947 1.55365-79.2358 6.9914-157.6947l-83.89671 13.2059q-5.43775 92.4418-56.70795 160.0252-50.49339 67.5835-150.703337 67.5835-15.53642596 0-34.95695896-2.3305-18.643712-3.1073-31.849674-12.4291 25.635103-19.4205 33.403316-55.1543 8.545035-35.7338 8.545035-65.253 0-26.4119-6.991392-58.2616-6.21457-32.6265-18.643712-56.708l348.015953-47.3861q6.99139-41.1715 19.42053-76.1285 13.20596-35.7337 31.84967-72.2443 34.95696-69.1371 93.21856-109.5318 59.03842-41.1716 129.72916-58.2616 71.46756-17.8669 144.48877-17.8669 97.87948 0 149.92651 38.841 52.82385 38.8411 73.0212 106.4246 20.19736 66.8066 20.19736 152.2569 0 37.2875-2.33047 97.1027-1.55364 59.8152-4.66092 129.7292-3.10729 69.9139-6.21458 138.2741-3.10728 67.5835-5.43774 123.5146-1.55365 55.1543-1.55365 85.4504 0 35.7338 4.66093 55.1543t47.3861 27.1887z"/>
  <path id="path14372" d="m2163.4015 6824.3902q-29.5192 9.3218-71.4676 23.3046-41.1715 13.206-76.1285 24.0815-34.9569 10.0986-46.6092 10.0986-41.9484 0-69.914-40.3947-27.9655-41.1715-49.7165-107.9781-20.9742-66.8067-41.9484-145.2656-20.1973-79.2358-46.6093-156.1411-25.6351-76.9053-64.4761-137.4974-38.0643-61.3689-94.7722-91.6649-100.9868 45.0556-161.5789 139.8278-60.592 93.9954-76.9053 200.4199 76.1285-34.1801 126.6219-49.7165 51.2702-15.5365 100.9868-15.5365 54.3775 0 72.2444 36.5106 18.6437 36.5107 18.6437 82.3431 0 45.0556-25.6351 84.6735-24.8583 39.6179-63.6994 62.1457-21.751 12.4292-59.0384 18.6437-36.5106 6.2146-72.2444 11.6524-35.7338 4.6609-55.9311 14.7596-20.9742 10.0987-52.8239 29.5192-31.8496 19.4205-67.5834 35.7338-35.7338 15.5364-69.1371 15.5364-50.4934 0-67.5835-27.9656-17.09-27.9655-17.09-75.3516 0-222.9478 87.7808-391.518t257.9046-309.1749l-86.2271-97.1026 173.2311-94.7722 119.6305 153.8106q90.1113 43.502 147.5961 117.3 57.4847 73.0212 93.9953 160.802 36.5106 87.004 60.5921 174.008 24.8583 86.2272 46.6093 159.2484 22.5278 72.2443 52.8238 115.7463 30.2961 43.502 78.459 43.502zm-682.0491-176.3385q0-73.0212-69.914-73.0212-12.4291 0-29.5192 1.5537-16.3132 1.5536-27.9655 6.2145-4.661 24.8583-7.7682 51.2702-3.1073 25.6351-3.1073 50.4934 0 24.0815 13.9828 41.9484 14.7596 17.09 39.6178 17.09 33.4034 0 59.0385-31.8496 25.6351-32.6265 25.6351-63.6994z"/>
  <path id="path14374" d="m3327.0798 6239.4437q-25.6351 17.0901-62.1457 27.1887-35.7338 9.3219-66.8066 9.3219-60.5921 0-104.8709-30.296-43.502-30.2961-43.502-97.1027 0-10.8755 0.7768-16.3132l-105.6477 17.8669q-0.7768 62.9225-29.5192 107.9781-28.7424 45.0557-68.3602 90.8881-26.412 30.296-53.6007 59.8153-26.4119 29.5192-53.6007 59.8152 34.1802-1.5537 69.1371-1.5537 34.957 0 69.1371 0 55.1543 0 83.8967 31.0729 28.7424 30.296 40.3947 77.6821 12.4292 47.3861 17.0901 96.3259 8.545 89.3344 18.6437 123.5146 10.8755 33.4033 31.0729 33.4033l1.5536 19.4205-147.5961 28.7424q-10.0986 1.5536-20.1973 3.1073-9.3219 2.3305-20.1974 2.3305-21.751 0-34.1801-10.0987-18.6437-14.7596-28.7424-50.4934-10.0987-36.5106-14.7596-74.5749-3.8841-38.0642-6.2146-59.8152-3.8841-40.3947-11.6523-74.5748-7.7682-34.957-29.5192-58.2616-21.751-24.0815-68.3603-31.0729-69.1371 71.4676-103.3172 114.9696t-45.0556 68.3602q-10.8755 24.8583-10.8755 41.1716 0 35.7337 14.7596 49.7165 15.5364 13.9828 48.9397 20.1974v22.5278l-145.2656 13.9828q-12.4291 0.7768-24.0814 3.1073-11.6524 1.5536-24.8583 1.5536-41.9484 0-68.3603-17.0901-25.6351-17.09-25.6351-63.6993 0-51.2702 41.9484-125.8451 41.9483-75.3516 163.1324-194.2053 26.412-26.4119 52.0471-53.6007 25.6351-27.1887 49.7165-54.3774-33.4033 0.7768-66.8066 4.6609-32.6265 3.1073-66.8066 3.1073-63.6994 0-90.8881-37.2875-26.412-37.2874-26.412-96.3258 0-80.0126 30.2961-132.0596 30.296-52.0471 80.7894-80.7894 51.2702-29.5193 114.9695-41.1716 64.4762-11.6523 132.0597-11.6523 48.9397 0 94.7722 10.8755 46.6092 10.0987 80.0126 38.8411 34.1801 28.7424 45.8324 82.343l347.2391-57.4847q-16.3132 47.3861-16.3132 102.5404 0 26.4119 17.0901 57.4847 17.09 30.2961 38.841 45.8325zm-591.9378-118.0768q0-37.2875-17.0901-63.6994-16.3132-27.1887-57.4848-27.1887-36.5106 0-58.2616 26.4119-21.751 25.6351-31.0728 61.3689-9.3219 35.7338-9.3219 65.253 0 51.2702 22.5279 79.2357 23.3046 27.9656 76.1284 33.4034 31.8497-39.6179 52.8239-80.7895 21.751-41.9483 21.751-93.9953z"/>
  <path id="path14376" d="m4311.3125 6154.7702q0 28.7424-4.6609 59.0384-4.661 29.5192-12.4292 57.4848l-119.6305 443.5649q-9.3218 31.8497-9.3218 62.1458 0 19.4205 6.9914 35.7337 7.7682 15.5365 31.0728 14.7596v20.9742l-133.6132 25.6351q-13.206 2.3305-26.412 4.6609-13.2059 1.5537-27.1887 1.5537-35.7338 0-54.3775-15.5364-17.8669-15.5365-17.8669-52.8239 0-28.7424 5.4378-52.8238l139.8278-563.1955q7.7682-33.4033 7.7682-71.4676 0-43.5019-19.4205-78.4589-19.4206-35.7338-69.9139-35.7338-34.957 0-65.253 13.9828 18.6437 23.3046 27.9655 57.4848 10.0987 34.1801 10.0987 63.6993 0 31.8497-12.4291 71.4676-12.4292 39.6179-36.5106 71.4675-24.0815 31.0729-60.5921 38.8411-33.4033 7.7682-70.6907 7.7682-36.5106-0.7768-72.2444 5.4378-42.7252 6.9914-81.5663 24.8583-38.0642 17.09-82.343 17.09-66.8066 0-99.4331-48.9397-32.6265-49.7166-32.6265-110.3086 0-69.914 30.296-109.5318 31.0729-39.6179 82.3431-58.2616 51.2702-19.4206 111.8622-26.412 43.502-5.4377 84.6736-16.3132 41.1715-11.6523 82.343-24.0815 67.5835-20.1973 136.7206-35.7338 69.1371-15.5364 139.8278-15.5364 98.6563 0 154.5874 60.5921 56.708 59.8152 56.708 156.9179zm-539.114 24.0814q0-21.751-4.6609-45.8324-4.661-24.8583-18.6437-41.9484-13.9828-17.09-41.9484-17.09-63.6993 0-63.6993 114.1927 0 45.0556 13.2059 77.6821 13.9828 31.8497 47.3861 31.8497 25.6351 0 40.3947-21.751t20.9742-49.7166q6.9914-28.7423 6.9914-47.3861z"/>
  <path id="path14378" d="m5248.9357 6089.5172q-22.5278 14.7596-58.2616 20.9742-34.9569 6.2145-61.3688 6.2145-76.9054 0-123.5146-38.841-45.8325-38.8411-45.8325-119.6305 0-5.4378 0-10.0987 0-5.4377 0.7768-10.8755-67.5834 0-125.0682 10.8755t-105.6477 63.6994q-42.7252 47.3861-62.1457 114.9695-18.6437 67.5835-18.6437 129.7292 0 55.1543 27.9656 90.8881 27.9655 34.9569 86.2271 34.9569 43.502 0 85.4504-10.8755 41.9483-11.6523 84.6735-11.6523 34.1801 0 60.592 20.9742 27.1888 20.9742 27.1888 57.4848 0 22.5278-3.8841 46.6092-3.8841 23.3047-7.7682 45.8325-7.7682 52.047-17.8669 104.0941-9.3219 52.047-16.3133 104.094-1.5536 11.6523-3.8841 24.8583-2.3304 12.4291-2.3304 24.0815 0 17.09 14.7596 25.6351 14.7596 8.545 27.9655 13.9827v22.5279l-165.4629 27.1887q-14.7596 2.3305-30.296 2.3305-38.0643 0-53.6007-17.0901-14.7596-17.0901-14.7596-53.6007 0-14.7596 1.5536-28.7424 2.3305-14.7596 4.661-28.7423 7.7682-43.502 16.3132-85.4504 9.3219-42.7252 17.0901-85.4503 3.8841-20.1974 7.7682-41.9484 4.6609-21.751 4.6609-41.9483 0-36.5106-23.3046-48.9398-23.3047-12.4291-55.9312-12.4291-21.7509 0-41.9483 4.6609t-41.1715 8.545q-21.751 3.8841-43.502 5.4378-20.9742 1.5536-43.502 1.5536-55.9312 0-84.6735-22.5278-27.9656-22.5278-38.0643-61.3689-9.3218-38.841-9.3218-87.7808 0-85.4503 25.6351-170.1238 26.4119-85.4504 97.1026-139.8279 38.0643-29.5192 99.4332-48.1629 62.1457-18.6437 132.8364-28.7424 70.6907-10.8755 136.7205-14.7596 66.8067-4.6609 114.1928-5.4378 48.1629-0.7768 96.3258-1.5536 48.1629-1.5536 96.3259-1.5536-6.9914 6.9914-10.0987 27.9655-3.1073 20.1974-4.6609 41.1716-0.7769 20.9741-0.7769 29.5192 0 28.7424 10.8755 64.4761 11.6524 34.957 36.5106 52.8239z"/>
  <path id="path14380" d="m7301.0914 6172.6371q-23.3047 13.9828-54.3775 22.5278-31.0729 7.7682-58.2616 7.7682-172.4544 0-165.463-169.347l-160.802 10.0986q-16.3132 110.3087-32.6265 220.6173-16.3132 110.3086-32.6265 221.3941-12.4291 87.0039-55.1543 137.4973-41.9483 50.4934-106.4245 76.9053-63.6993 25.6351-142.9351 41.1716-52.047 10.0987-105.6477 17.09-53.6007 6.2146-106.4245 12.4292 10.0986 57.4848-17.8669 104.8709-27.1888 47.3861-76.1285 75.3516-48.1629 27.9656-103.3173 27.9656-19.4205 0-42.7251-6.9914-23.3047-6.2146-40.3947-17.0901 20.9741-6.2145 31.0728-34.1801t13.206-59.0384q3.8841-31.0729 3.8841-46.6093 0-13.9828-2.3305-31.0729-1.5536-17.8668-6.2145-31.0728 201.9735-8.545 330.149-36.5106 128.1755-28.7424 174.7848-83.8967 24.0815-27.9656 34.957-61.3689t15.5364-69.1371l55.9311-445.8954-160.802 9.3218q7.7682 44.2788-17.0901 87.004-24.0814 42.7252-66.8066 71.4676-42.7252 27.9655-89.3344 27.9655-24.0815 0-52.8239-7.7682t-51.2702-17.8669q20.9742-16.3132 33.4033-44.2788 13.206-27.9655 13.206-54.3775 0-24.8582-8.545-54.3775-7.7683-30.296-23.3047-50.4933l1047.1551-63.6994q-6.9913 18.6437-9.3218 43.502t-2.3305 44.2788q0 25.6351 7.7682 66.8067 8.5451 41.1715 30.2961 59.0384z"/>
  <path id="path14382" d="m8181.8948 6137.6801q-24.8583 14.7596-60.592 21.751-35.7338 6.2146-63.6994 6.2146-48.9397 0-91.6649-9.3219-42.7252-10.0987-69.1371-39.6179t-26.4119-89.3344q0-12.4292 0.7768-18.6437-90.8881 0-144.4888 40.3947-53.6006 39.6179-80.7894 106.4245-27.1887 66.0298-40.3947 146.0424-10.0987 66.0298-13.9828 133.6133-3.1073 66.8066-3.1073 133.6132 0 25.6351 1.5537 69.1371 1.5536 42.7252 11.6523 82.3431 10.8755 38.8411 38.8411 53.6007 15.5364 7.7682 34.1801 9.3218 19.4205 1.5537 36.5106 1.5537 31.8497 0 71.4676-9.3219 40.3947-10.0987 66.8066-30.296 6.2146-48.1629 39.6179-70.6908 34.1801-23.3046 78.4589-30.296 45.0557-6.9914 83.8967-6.9914 10.0987 0 23.3047 2.3305 13.9828 1.5536 24.0814 5.4377-5.4377 3.1073-8.545 19.4206-2.3304 15.5364-3.1073 31.0728-0.7768 14.7596-0.7768 17.8669 0 28.7424 10.8755 67.5835 10.8755 38.0642 36.5106 56.7079-19.4205 26.4119-62.1457 38.0643-41.9483 10.8755-73.0212 10.8755-41.9484 0-82.3431-16.3133-39.6178-16.3132-57.4847-58.2616-43.502 13.206-104.0941 29.5192-60.5921 15.5364-121.1841 27.1888-60.5921 11.6523-104.0941 11.6523-59.0384 0-92.4417-25.6351-32.6265-26.4119-48.1629-68.3603-14.7596-41.9483-18.6437-90.8881-3.1073-48.9397-3.1073-94.7722 0-52.8238 1.5536-106.4245 1.5537-53.6007 6.2146-106.4245 6.2146-62.1457 19.4205-122.7378 13.206-61.3689 42.7252-112.6391 30.296-52.047 84.6735-87.004 97.8795-63.6993 204.304-93.2185 107.2014-30.2961 208.965-38.0643 101.7635-8.545 183.3298-6.9914 3.8841 62.9226 16.3132 110.3087 12.4292 47.3861 47.3861 100.2099z"/>
  <path id="path14384" d="m9316.737 6366.0656q-18.6437 17.09-47.3861 27.1887-27.9656 10.0987-52.8239 10.0987-87.004 0-118.0768-45.8325-30.296-45.8324-27.1888-122.7377l-156.9179 10.8755-56.7079 383.7497q-3.1073 23.3046-6.9914 52.047-3.8841 27.9656-3.8841 51.2702 0 19.4206 9.3218 48.9398 9.3219 28.7424 35.7338 28.7424 20.1974 0 39.6179-1.5537 20.1974-1.5536 39.6179-3.1073 15.5364-37.2874 48.9397-58.2616 34.1802-20.9741 74.5749-28.7423 41.1715-8.5451 76.9053-8.5451 14.7596 0 30.296 2.3305 16.3133 1.5536 30.2961 6.9914-17.0901 13.9828-26.412 38.841-8.545 24.0815-8.545 45.8325 0 33.4033 13.9828 71.4676 13.9828 38.0642 43.502 55.9311-35.7338 23.3046-69.9139 33.4033-33.4034 10.8755-76.9054 10.8755-55.9311 0-93.2185-31.0728-37.2874-30.2961-41.9484-87.004l-227.6086 19.4205q-12.4291 0.7768-24.8583 2.3305-11.6523 0.7768-24.0815 0.7768-45.0556 0-57.4847-24.8583-12.4292-24.8583-12.4292-64.4762 0-17.8669 1.5537-39.6178 2.3304-22.5279 4.6609-39.6179l65.253-449.0028-171.6775 13.206q0 53.6007-24.8583 100.9868t-68.3603 76.9053q-42.7251 28.7424-99.4331 28.7424-14.7596 0-35.7338-4.661-20.9742-4.6609-32.6265-16.3132 22.5278-22.5278 31.8497-62.9225 9.3218-41.1716 9.3218-70.6908 0-20.1973-0.7768-45.0556-0.7768-25.6351-6.9914-45.0556l407.0544-30.2961q4.6609-32.6265 10.8755-75.3516 6.9914-43.502 11.6523-83.1199 4.661-39.6179 4.661-59.8153 0-27.1887-12.4292-55.1543-11.6523-27.9655-40.3947-37.2874v-12.4291q50.4934-3.8841 100.21-6.9914 50.4933-3.8841 100.2099-3.8841 40.3947 0 56.708 18.6437 17.09 18.6437 17.09 57.4848 0 11.6523-3.8841 42.7251-3.1073 30.2961-8.545 68.3603-5.4378 37.2874-10.8755 73.0212-5.4378 34.957-8.545 55.9311l370.5437-27.1887q-6.2146 18.6437-8.545 43.502-2.3305 24.0814-2.3305 44.2788 0 13.206 2.3305 38.0642 3.1073 24.0815 10.8755 46.6093t21.751 31.0729z"/>
 </g>
 <g id="Prosperity_Party" transform="matrix(.83072412 0 0 .83072412 159.7198 1543.3084)" stroke-width="27.1224">
  <path id="path23245" d="m506.32145 7789.2796q0 99.3252-47.01392 164.8799-47.01393 65.5546-126.47408 98.663-79.46016 32.4462-176.79885 32.4462h-3.97301q-26.48672 0-58.932946-1.9865-31.784063-2.6487-37.081406-3.3108v252.286q0 9.9325 6.621679 19.2028 7.283848 9.2704 21.851543 10.5947l89.39268 5.2974v58.2707h-356.24637v-58.2707l71.51414-5.2974q14.567695-1.3243 21.851543-10.5947 7.946016-9.2703 7.946016-19.2028v-723.0875q0-9.9325-7.946016-19.2028-7.283848-9.9325-21.851543-10.5947l-81.44666-5.2974v-58.2707h324.4623q192.02871 0 282.74573 61.5816 91.37917 61.5816 91.37917 211.8937zm-141.04177 1.9865q0-98.663-55.62211-153.6229-54.95994-55.6221-184.74486-55.6221-18.54071 0-43.70309 0.6621-25.162382 0.6622-25.162382 0.6622v427.0983q3.31084 0 29.797558 3.973 27.148884 3.3109 46.351754 3.3109h3.97301q105.28471 0 166.86633-54.96 62.24379-54.9599 62.24379-171.5015z"/>
  <path id="path23247" d="m1047.7247 7910.4564h-52.97348q-12.58119-15.2299-30.45973-25.8246-17.21636-11.2568-42.37875-11.2568-32.44623 0-66.87896 22.5137-33.77057 22.5137-68.86547 61.5816v381.4087q0 28.4733 28.47322 29.7976l89.39268 3.973v52.9734h-339.03v-51.6491l66.87896-5.2973q11.91903-1.3243 19.86504-9.2703 8.60819-7.9461 8.60819-20.5273v-470.8014h-98.00086v-44.3652l168.19066-51.6491h55.62211v120.5145q19.86504-21.8515 49.6626-54.2977 29.79756-32.4463 63.56812-57.6087 33.77057-25.1623 65.55463-25.1623 21.18938 0 45.68964 6.6216 24.5002 6.6217 37.0814 13.9056z"/>
  <path id="path23249" d="m1724.8723 8099.8364q0 96.0144-39.7301 174.1502-39.7301 77.4736-112.5686 123.1632-72.1763 45.0274-171.5015 45.0274-98.663 0-170.8393-45.0274t-111.2442-122.501q-39.0679-77.4737-39.0679-174.8124 0-96.6765 39.0679-174.8123 39.7301-78.1359 112.5685-123.8254 73.5007-45.6896 173.488-45.6896 101.3117 0 172.8259 46.3517 71.5141 46.3518 109.2577 124.4876t37.7436 173.488zm-141.0418-1.3243q0-74.1628-19.8651-138.3931-19.2028-64.2303-59.5951-103.9604-39.73-39.7301-100.6495-39.7301-62.906 0-103.2982 39.7301-39.7301 39.7301-58.9329 103.9604-19.2029 64.2303-19.2029 138.3931 0 73.5006 19.2029 138.3931 19.865 64.2303 59.5951 103.9603 40.3922 39.7301 101.3117 39.7301 62.2438 0 101.9738-39.7301 40.3923-39.73 59.5951-103.9603 19.8651-64.2303 19.8651-138.3931z"/>
  <path id="path23251" d="m2236.4778 8228.9592q0 99.9873-68.8655 156.9338-68.8654 56.2842-190.0422 56.2842-62.2438 0-115.2172-13.2433-52.3113-12.5812-72.8385-21.1894v-180.1097h68.8655l16.5542 115.2173q20.5272 13.2433 50.3247 25.8245 30.4598 11.919 70.1899 11.919 58.2707 0 90.0548-32.4462t31.7841-72.8385q0-53.6356-38.4058-80.7845-38.4057-27.811-109.2577-61.5816l-17.8785-8.6082q-74.1628-35.0949-113.8929-72.8385-39.0679-38.4057-39.0679-99.3251 0-90.7171 63.5681-143.6905t180.7718-52.9734q59.5952 0 105.9469 11.2568 47.0139 10.5947 67.5412 19.8651v160.2446h-70.852l-10.5947-94.69q-14.5677-11.2569-43.0409-21.1894t-60.2573-9.9325q-55.6221 0-82.771 25.8245-27.1489 25.1624-27.1489 64.8925 0 45.6896 32.4462 72.8385 33.1084 26.4867 119.1903 65.5546 70.8519 32.4462 116.5415 72.8385 46.3518 39.7301 46.3518 105.9469z"/>
  <path id="path23253" d="m2966.5987 8089.2417q0 106.6091-41.0544 186.0692-41.0544 79.4602-117.8659 123.1633-76.8115 43.703-184.0827 43.703-24.5002 0-52.9735-3.3108-27.811-3.3108-47.676-6.6217-19.8651-2.6486-19.8651-2.6486v201.9612q0 12.5812 8.6082 19.865 8.6082 7.2839 21.1894 8.6082l80.1223 8.6082v52.3113h-329.7597v-52.3113l64.8925-8.6082q28.4732-1.9865 28.4732-28.4732v-763.4797h-93.3657v-44.3652l166.8664-51.6491h52.9734v67.5411t16.5542-12.5812q17.2164-12.5812 45.6896-29.1354 29.1354-17.2164 65.5546-29.7975 37.0814-12.5812 76.8115-12.5812 70.1898 0 128.4606 41.7165 58.933 41.0545 94.69 115.8794 35.7571 74.825 35.7571 176.1367zm-135.7444 19.2029q0-70.1898-21.8516-128.4606-21.1894-58.2708-63.5681-93.3657-41.7166-35.757-103.9604-35.757-33.7705 0-65.5546 9.9325t-52.3113 20.5272q-20.5272 9.9325-20.5272 9.9325v466.8284t33.7706 10.5947q34.4327 10.5947 76.1493 10.5947 74.825 0 122.5011-38.4058 48.3382-38.4057 71.5141-99.9873 23.8381-62.2438 23.8381-132.4336z"/>
  <path id="path23255" d="m3603.3541 8358.0819q-56.9464 35.0949-123.1632 59.5951-65.5547 24.5002-134.4201 24.5002-82.1089 0-154.2852-36.4192-71.5141-37.0814-115.8794-111.9064-44.3652-74.825-44.3652-188.0557 0-105.9469 41.0544-184.7448 41.0544-78.798 113.2307-121.8389 72.1763-43.7031 164.2177-43.7031 126.4741 0 190.0422 78.798 63.5681 78.1358 63.5681 199.3125 0 6.6217 0 17.8785 0 10.5947-1.3243 19.8651h-439.6796q0 51.6491 10.5947 103.2982 11.2569 50.9869 37.0814 92.7035 25.8246 41.7166 69.5277 66.879t109.2577 25.1624q58.2708 0 113.2307-26.4868 55.6221-27.1489 101.3117-57.6086zm-135.7444-347.6382v-29.7975q0-66.879-32.4463-112.5686-31.784-45.6896-99.3252-45.6896-66.8789 0-113.8928 50.3248-47.014 50.3248-52.3113 137.7309z"/>
  <path id="path23257" d="m4138.1356 7910.4564h-52.9734q-12.5812-15.2299-30.4598-25.8246-17.2163-11.2568-42.3787-11.2568-32.4462 0-66.879 22.5137-33.7705 22.5137-68.8654 61.5816v381.4087q0 28.4733 28.4732 29.7976l89.3927 3.973v52.9734h-339.03v-51.6491l66.8789-5.2973q11.919-1.3243 19.8651-9.2703 8.6081-7.9461 8.6081-20.5273v-470.8014h-98.0008v-44.3652l168.1907-51.6491h55.6221v120.5145q19.865-21.8515 49.6626-54.2977 29.7975-32.4463 63.5681-57.6087 33.7705-25.1623 65.5546-25.1623 21.1894 0 45.6896 6.6216 24.5002 6.6217 37.0814 13.9056z"/>
  <path id="path23259" d="m4419.3067 7548.2505q0 34.4327-23.838 59.5951-23.8381 24.5002-58.2708 24.5002-34.4328 0-59.5951-24.5002-24.5002-25.1624-24.5002-59.5951 0-35.0949 24.5002-58.933 25.1623-23.838 59.5951-23.838 34.4327 0 58.2708 23.838 23.838 23.8381 23.838 58.933zm69.5276 877.3725h-318.5027v-52.9734l66.2168-3.973q28.4732-1.9865 28.4732-29.7976v-484.0447h-93.3657v-47.6761l165.542-51.6491h53.6356v583.3699q0 12.5812 7.946 20.5273 8.6082 7.946 20.5272 9.2703l69.5276 3.973z"/>
  <path id="path23261" d="m4958.7234 8342.8521v54.2977t-25.8246 11.2569q-25.1624 11.2568-66.8789 22.5137-41.0545 11.2568-90.0549 11.2568-76.1493 0-111.2442-35.757-34.4327-36.4193-34.4327-116.5416v-450.2742h-86.744v-44.3653l92.7035-43.703 60.9194-143.6905h59.5951v164.2177h191.3666v67.5411h-191.3666v378.7601q0 80.7845 27.1489 114.555 27.1489 33.1084 81.4467 33.1084 39.7301 0 66.2168-11.2568 27.1489-11.919 27.1489-11.919z"/>
  <path id="path23263" d="m5645.1413 7825.0367-70.852 7.946-260.232 634.3569q-8.6081 21.8516-27.1489 62.2438-17.8785 41.0544-43.0409 83.4332-24.5002 43.0409-52.9734 71.5141-24.5002 24.5002-54.2978 37.7436-29.1354 13.9055-63.5681 13.9055-48.3383 0-74.1628-23.838-25.1624-23.1759-25.1624-53.6356 0-45.0275 43.7031-81.4467l127.1362 58.2708q22.5137-22.5137 45.0275-60.9195 22.5137-38.4057 40.3922-79.4601 18.5407-41.0544 28.4732-70.852l-230.4344-591.316-74.825-7.946v-52.9734h299.9621v52.9734l-64.8925 3.973q-21.8515 1.9865-21.8515 21.8516 0 5.2973 1.3243 7.946l157.596 399.9494 160.9068-399.9494q1.9865-3.973 1.9865-8.6082 0-19.8651-20.5272-21.1894l-64.2303-3.973v-52.9734h241.6913z"/>
  <path id="path23265" d="m6945.1388 7789.2796q0 99.3252-47.0139 164.8799-47.0139 65.5546-126.4741 98.663-79.4601 32.4462-176.7988 32.4462h-3.973q-26.4867 0-58.933-1.9865-31.784-2.6487-37.0814-3.3108v252.286q0 9.9325 6.6217 19.2028 7.2838 9.2704 21.8515 10.5947l89.3927 5.2974v58.2707h-356.2463v-58.2707l71.5141-5.2974q14.5677-1.3243 21.8515-10.5947 7.9461-9.2703 7.9461-19.2028v-723.0875q0-9.9325-7.9461-19.2028-7.2838-9.9325-21.8515-10.5947l-81.4467-5.2974v-58.2707h324.4623q192.0287 0 282.7458 61.5816 91.3791 61.5816 91.3791 211.8937zm-141.0417 1.9865q0-98.663-55.6221-153.6229-54.96-55.6221-184.7449-55.6221-18.5407 0-43.7031 0.6621-25.1624 0.6622-25.1624 0.6622v427.0983q3.3109 0 29.7976 3.973 27.1489 3.3109 46.3517 3.3109h3.973q105.2848 0 166.8664-54.96 62.2438-54.9599 62.2438-171.5015z"/>
  <path id="path23267" d="m7637.5164 8425.623h-200.6369l-17.8785-80.1223t-20.5272 14.5677q-19.8651 14.5677-52.9735 33.7706t-73.5006 33.7706q-39.7301 14.5676-79.4602 14.5676-73.5006 0-125.1497-49.0004-50.987-49.0004-50.987-134.4201 0-37.7436 13.2434-70.1898 13.9055-32.4462 54.2978-61.5816 41.0544-29.7976 121.1767-57.6086 80.7845-28.4732 213.8803-57.6086v-58.2708q0-133.7579-126.4741-133.7579-35.0949 0-60.9195 6.6216-25.1623 6.6217-35.0949 10.5947v117.8659h-98.663q-18.5407 0-34.4327-6.6217-15.8921-7.2838-15.8921-32.4462 0-55.6221 42.3788-90.717 42.3787-35.7571 107.2712-52.3113 65.5546-17.2163 132.4336-17.2163 84.0953 0 130.4471 26.4867 46.3517 25.8245 64.8924 72.1763 18.5407 45.6896 18.5407 104.6225v380.0844q0 12.5812 7.9461 20.5273 8.6081 7.946 20.5272 9.2703l65.5546 3.973zm-218.5154-127.7984v-234.4074q-91.3792 22.5137-145.677 45.6896-53.6356 22.5137-80.1223 45.6895-26.4867 22.5138-35.0949 46.3518-7.946 23.1759-7.946 48.3383 0 41.7165 26.4867 77.4736 27.1489 35.0949 75.4871 35.0949 27.1489 0 56.2843-9.2703 29.1354-9.9325 54.2978-22.5137 25.1624-13.2434 40.3922-22.5138 15.8921-9.9325 15.8921-9.9325z"/>
  <path id="path23269" d="m8148.4596 7910.4564h-52.9735q-12.5811-15.2299-30.4597-25.8246-17.2164-11.2568-42.3787-11.2568-32.4463 0-66.879 22.5137-33.7706 22.5137-68.8655 61.5816v381.4087q0 28.4733 28.4733 29.7976l89.3926 3.973v52.9734h-339.03v-51.6491l66.879-5.2973q11.919-1.3243 19.865-9.2703 8.6082-7.9461 8.6082-20.5273v-470.8014h-98.0008v-44.3652l168.1906-51.6491h55.6221v120.5145q19.8651-21.8515 49.6626-54.2977 29.7976-32.4463 63.5682-57.6087 33.7705-25.1623 65.5546-25.1623 21.1894 0 45.6896 6.6216 24.5002 6.6217 37.0814 13.9056z"/>
  <path id="path23271" d="m8585.9021 8342.8521v54.2977t-25.8246 11.2569q-25.1624 11.2568-66.8789 22.5137-41.0544 11.2568-90.0549 11.2568-76.1493 0-111.2442-35.757-34.4327-36.4193-34.4327-116.5416v-450.2742h-86.744v-44.3653l92.7035-43.703 60.9194-143.6905h59.5952v164.2177h191.3665v67.5411h-191.3665v378.7601q0 80.7845 27.1488 114.555 27.1489 33.1084 81.4467 33.1084 39.7301 0 66.2168-11.2568 27.1489-11.919 27.1489-11.919z"/>
  <path id="path23273" d="m9272.32 7825.0367-70.8519 7.946-260.2321 634.3569q-8.6081 21.8516-27.1488 62.2438-17.8786 41.0544-43.041 83.4332-24.5002 43.0409-52.9734 71.5141-24.5002 24.5002-54.2978 37.7436-29.1354 13.9055-63.5681 13.9055-48.3383 0-74.1628-23.838-25.1624-23.1759-25.1624-53.6356 0-45.0275 43.7031-81.4467l127.1362 58.2708q22.5138-22.5137 45.0275-60.9195 22.5137-38.4057 40.3922-79.4601 18.5407-41.0544 28.4732-70.852l-230.4344-591.316-74.825-7.946v-52.9734h299.9621v52.9734l-64.8925 3.973q-21.8515 1.9865-21.8515 21.8516 0 5.2973 1.3243 7.946l157.596 399.9494 160.9068-399.9494q1.9865-3.973 1.9865-8.6082 0-19.8651-20.5272-21.1894l-64.2303-3.973v-52.9734h241.6913z"/>
 </g>
</svg>
